<svg xmlns="http://www.w3.org/2000/svg" width="1100" height="900" viewBox="0 0 1100 900">
  <defs><marker id="arrow" viewBox="0 0 10 10" refX="9" refY="5" markerWidth="8" markerHeight="8" orient="auto"><path d="M0 0 L10 5 L0 10 z" fill="#334155" /></marker></defs>
  <rect id="canvas-s" x="0" y="0" width="1100" height="900" fill="#ffffff" />
  <text id="title-s" x="550" y="42" text-anchor="middle" font-size="24" fill="#111827">Transformer Encoder Architecture</text>
  <line id="s1" x1="505" y1="124" x2="390" y2="166" stroke="#334155" stroke-width="3" marker-end="url(#arrow)" />
  <line id="s2" x1="410" y1="228" x2="527" y2="265" stroke="#334155" stroke-width="3" marker-end="url(#arrow)" />
  <line id="s3" x1="690" y1="228" x2="573" y2="265" stroke="#334155" stroke-width="3" marker-end="url(#arrow)" />
  <line id="s4" x1="550" y1="317" x2="550" y2="401" stroke="#334155" stroke-width="3" marker-end="url(#arrow)" />
  <line id="s5" x1="550" y1="463" x2="550" y2="501" stroke="#334155" stroke-width="3" marker-end="url(#arrow)" />
  <polyline id="s6" points="519,307 255,307 255,529 385,529" fill="none" stroke="#2563eb" stroke-width="3" stroke-dasharray="7 5" marker-end="url(#arrow)" />
  <line id="s7" x1="550" y1="557" x2="550" y2="595" stroke="#334155" stroke-width="3" marker-end="url(#arrow)" />
  <line id="s8" x1="550" y1="657" x2="550" y2="695" stroke="#334155" stroke-width="3" marker-end="url(#arrow)" />
  <polyline id="s9" points="385,529 260,529 260,723 385,723" fill="none" stroke="#2563eb" stroke-width="3" stroke-dasharray="7 5" marker-end="url(#arrow)" />
  <line id="s10" x1="550" y1="751" x2="550" y2="822" stroke="#334155" stroke-width="3" marker-end="url(#arrow)" />
</svg>